<?xml version="1.0" standalone="no"?>
<!DOCTYPE svg PUBLIC "-//W3C//DTD SVG 20010904//EN"
 "http://www.w3.org/TR/2001/REC-SVG-20010904/DTD/svg10.dtd">
<svg version="1.0" xmlns="http://www.w3.org/2000/svg"
 width="128.000000pt" height="128.000000pt" viewBox="0 0 128.000000 128.000000"
 preserveAspectRatio="xMidYMid meet">

<g transform="translate(0.000000,128.000000) scale(0.100000,-0.100000)"
fill="#000000" stroke="none">
<path d="M314 1078 c-78 -131 -110 -289 -80 -393 22 -74 102 -162 189 -205 33
-17 61 -29 63 -28 1 2 -20 47 -46 102 -53 107 -90 242 -90 326 0 30 2 51 4 49
3 -3 12 -40 21 -84 21 -101 58 -191 119 -284 55 -85 51 -86 109 36 27 57 32
80 32 138 0 63 -4 77 -35 129 -37 62 -224 266 -244 266 -6 0 -25 -24 -42 -52z"/>
<path d="M729 804 c-35 -14 -37 -18 -43 -75 -4 -33 -10 -67 -13 -75 -3 -10 18
-3 63 20 38 19 89 39 114 46 25 6 53 13 63 16 9 3 17 1 17 -3 0 -5 -26 -18
-57 -28 -68 -23 -184 -97 -233 -149 -40 -42 -37 -46 44 -71 85 -26 146 -20
202 18 73 50 230 245 212 263 -3 2 -32 14 -64 26 -78 29 -252 36 -305 12z"/>
</g>
</svg>
